<?xml version="1.0" encoding="UTF-8"?>
<svg width="128" height="128" viewBox="0 0 128 128" fill="none" xmlns="http://www.w3.org/2000/svg">
  <!-- Background Circle -->
  <circle cx="64" cy="64" r="60" fill="#3B82F6" stroke="#1E40AF" stroke-width="2"/>
  
  <!-- Eye Icon (Main) -->
  <ellipse cx="64" cy="64" rx="32" ry="20" fill="white" opacity="0.9"/>
  <circle cx="64" cy="64" r="12" fill="#1E40AF"/>
  <circle cx="67" cy="61" r="4" fill="white"/>
  
  <!-- Activity Lines (API Monitoring) -->
  <path d="M20 90 L30 85 L40 95 L50 80 L60 88 L70 75 L80 85 L90 70 L100 80 L108 75" 
        stroke="white" stroke-width="3" fill="none" opacity="0.8"/>
  
  <!-- Small Data Points -->
  <circle cx="30" cy="85" r="2" fill="white" opacity="0.9"/>
  <circle cx="50" cy="80" r="2" fill="white" opacity="0.9"/>
  <circle cx="70" cy="75" r="2" fill="white" opacity="0.9"/>
  <circle cx="90" cy="70" r="2" fill="white" opacity="0.9"/>
  
  <!-- Corner API Symbol -->
  <rect x="100" y="20" width="6" height="6" rx="1" fill="white" opacity="0.7"/>
  <rect x="100" y="30" width="6" height="6" rx="1" fill="white" opacity="0.7"/>
  <rect x="100" y="40" width="6" height="6" rx="1" fill="white" opacity="0.7"/>
</svg>
